<mxfile host="Electron" modified="2023-06-08T21:27:39.820Z" agent="Mozilla/5.0 (Windows NT 10.0; Win64; x64) AppleWebKit/537.36 (KHTML, like Gecko) draw.io/21.2.8 Chrome/112.0.5615.165 Electron/24.2.0 Safari/537.36" etag="3XWzG1i7A0TKO2Fo34XC" version="21.2.8" type="device">
  <diagram name="Page-1" id="-JHH61GcC9G6uU6NVZ0j">
    <mxGraphModel dx="1183" dy="725" grid="1" gridSize="10" guides="1" tooltips="1" connect="1" arrows="1" fold="1" page="1" pageScale="1" pageWidth="827" pageHeight="1169" math="0" shadow="0">
      <root>
        <mxCell id="0" />
        <mxCell id="1" parent="0" />
        <mxCell id="YSa-JAcuy4eLsteA9DIx-18" style="rounded=0;orthogonalLoop=1;jettySize=auto;html=1;entryX=0.5;entryY=0;entryDx=0;entryDy=0;fontFamily=Fira Code;fontSource=https%3A%2F%2Ffonts.googleapis.com%2Fcss%3Ffamily%3DFira%2BCode;fontSize=16;fontColor=default;endArrow=open;endFill=0;strokeWidth=2;" edge="1" parent="1" source="YSa-JAcuy4eLsteA9DIx-1" target="YSa-JAcuy4eLsteA9DIx-2">
          <mxGeometry relative="1" as="geometry">
            <Array as="points">
              <mxPoint x="200" y="450" />
              <mxPoint x="180" y="470" />
            </Array>
          </mxGeometry>
        </mxCell>
        <mxCell id="YSa-JAcuy4eLsteA9DIx-19" style="edgeStyle=none;shape=connector;rounded=0;orthogonalLoop=1;jettySize=auto;html=1;entryX=0.5;entryY=0;entryDx=0;entryDy=0;labelBackgroundColor=default;strokeColor=default;strokeWidth=2;fontFamily=Fira Code;fontSource=https%3A%2F%2Ffonts.googleapis.com%2Fcss%3Ffamily%3DFira%2BCode;fontSize=16;fontColor=default;endArrow=open;endFill=0;" edge="1" parent="1" source="YSa-JAcuy4eLsteA9DIx-1" target="YSa-JAcuy4eLsteA9DIx-3">
          <mxGeometry relative="1" as="geometry">
            <Array as="points">
              <mxPoint x="460" y="520" />
            </Array>
          </mxGeometry>
        </mxCell>
        <mxCell id="YSa-JAcuy4eLsteA9DIx-20" style="edgeStyle=none;shape=connector;rounded=0;orthogonalLoop=1;jettySize=auto;html=1;entryX=0.5;entryY=0;entryDx=0;entryDy=0;labelBackgroundColor=default;strokeColor=default;strokeWidth=2;fontFamily=Fira Code;fontSource=https%3A%2F%2Ffonts.googleapis.com%2Fcss%3Ffamily%3DFira%2BCode;fontSize=16;fontColor=default;endArrow=open;endFill=0;" edge="1" parent="1" source="YSa-JAcuy4eLsteA9DIx-1" target="YSa-JAcuy4eLsteA9DIx-4">
          <mxGeometry relative="1" as="geometry">
            <Array as="points">
              <mxPoint x="740" y="520" />
            </Array>
          </mxGeometry>
        </mxCell>
        <mxCell id="YSa-JAcuy4eLsteA9DIx-21" style="edgeStyle=none;shape=connector;rounded=0;orthogonalLoop=1;jettySize=auto;html=1;entryX=0.5;entryY=0;entryDx=0;entryDy=0;labelBackgroundColor=default;strokeColor=default;strokeWidth=2;fontFamily=Fira Code;fontSource=https%3A%2F%2Ffonts.googleapis.com%2Fcss%3Ffamily%3DFira%2BCode;fontSize=16;fontColor=default;endArrow=open;endFill=0;" edge="1" parent="1" source="YSa-JAcuy4eLsteA9DIx-1" target="YSa-JAcuy4eLsteA9DIx-5">
          <mxGeometry relative="1" as="geometry">
            <Array as="points">
              <mxPoint x="1000" y="450" />
              <mxPoint x="1020" y="470" />
            </Array>
          </mxGeometry>
        </mxCell>
        <mxCell id="YSa-JAcuy4eLsteA9DIx-1" value="Research" style="shape=parallelogram;perimeter=parallelogramPerimeter;whiteSpace=wrap;html=1;fixedSize=1;strokeWidth=2;fontStyle=1;fontSize=16;fontFamily=Fira Code;fontSource=https%3A%2F%2Ffonts.googleapis.com%2Fcss%3Ffamily%3DFira%2BCode;fillColor=#E6E6E6;" vertex="1" parent="1">
          <mxGeometry x="480" y="420" width="240" height="60" as="geometry" />
        </mxCell>
        <mxCell id="YSa-JAcuy4eLsteA9DIx-2" value="&lt;b&gt;Input Wiring Techniques&lt;/b&gt;" style="rounded=0;whiteSpace=wrap;html=1;strokeColor=default;strokeWidth=2;fontFamily=Fira Code;fontSource=https%3A%2F%2Ffonts.googleapis.com%2Fcss%3Ffamily%3DFira%2BCode;fontSize=16;fontColor=default;fillColor=#E6E6E6;" vertex="1" parent="1">
          <mxGeometry x="60" y="560" width="240" height="60" as="geometry" />
        </mxCell>
        <mxCell id="YSa-JAcuy4eLsteA9DIx-3" value="&lt;b&gt;Guitar Layout Design&lt;/b&gt;" style="rounded=0;whiteSpace=wrap;html=1;strokeColor=default;strokeWidth=2;fontFamily=Fira Code;fontSource=https%3A%2F%2Ffonts.googleapis.com%2Fcss%3Ffamily%3DFira%2BCode;fontSize=16;fontColor=default;fillColor=#E6E6E6;" vertex="1" parent="1">
          <mxGeometry x="340" y="560" width="240" height="60" as="geometry" />
        </mxCell>
        <mxCell id="YSa-JAcuy4eLsteA9DIx-4" value="&lt;b&gt;Audio in Web Development&lt;/b&gt;" style="rounded=0;whiteSpace=wrap;html=1;strokeColor=default;strokeWidth=2;fontFamily=Fira Code;fontSource=https%3A%2F%2Ffonts.googleapis.com%2Fcss%3Ffamily%3DFira%2BCode;fontSize=16;fontColor=default;fillColor=#E6E6E6;" vertex="1" parent="1">
          <mxGeometry x="620" y="560" width="240" height="60" as="geometry" />
        </mxCell>
        <mxCell id="YSa-JAcuy4eLsteA9DIx-5" value="&lt;b&gt;Music Notations&lt;/b&gt;" style="rounded=0;whiteSpace=wrap;html=1;strokeColor=default;strokeWidth=2;fontFamily=Fira Code;fontSource=https%3A%2F%2Ffonts.googleapis.com%2Fcss%3Ffamily%3DFira%2BCode;fontSize=16;fontColor=default;fillColor=#E6E6E6;" vertex="1" parent="1">
          <mxGeometry x="900" y="560" width="240" height="60" as="geometry" />
        </mxCell>
        <mxCell id="YSa-JAcuy4eLsteA9DIx-23" style="edgeStyle=none;shape=connector;rounded=0;orthogonalLoop=1;jettySize=auto;html=1;entryX=0.5;entryY=0;entryDx=0;entryDy=0;labelBackgroundColor=default;strokeColor=default;strokeWidth=2;fontFamily=Fira Code;fontSource=https%3A%2F%2Ffonts.googleapis.com%2Fcss%3Ffamily%3DFira%2BCode;fontSize=16;fontColor=default;endArrow=open;endFill=0;" edge="1" parent="1" source="YSa-JAcuy4eLsteA9DIx-6" target="YSa-JAcuy4eLsteA9DIx-8">
          <mxGeometry relative="1" as="geometry">
            <Array as="points">
              <mxPoint x="340" y="720" />
              <mxPoint x="320" y="740" />
            </Array>
          </mxGeometry>
        </mxCell>
        <mxCell id="YSa-JAcuy4eLsteA9DIx-24" style="edgeStyle=none;shape=connector;rounded=0;orthogonalLoop=1;jettySize=auto;html=1;entryX=0.5;entryY=0;entryDx=0;entryDy=0;labelBackgroundColor=default;strokeColor=default;strokeWidth=2;fontFamily=Fira Code;fontSource=https%3A%2F%2Ffonts.googleapis.com%2Fcss%3Ffamily%3DFira%2BCode;fontSize=16;fontColor=default;endArrow=open;endFill=0;" edge="1" parent="1" source="YSa-JAcuy4eLsteA9DIx-6" target="YSa-JAcuy4eLsteA9DIx-9">
          <mxGeometry relative="1" as="geometry">
            <Array as="points">
              <mxPoint x="860" y="720" />
              <mxPoint x="880" y="740" />
            </Array>
          </mxGeometry>
        </mxCell>
        <mxCell id="YSa-JAcuy4eLsteA9DIx-25" style="edgeStyle=none;shape=connector;rounded=0;orthogonalLoop=1;jettySize=auto;html=1;entryX=0.5;entryY=0;entryDx=0;entryDy=0;labelBackgroundColor=default;strokeColor=default;strokeWidth=2;fontFamily=Fira Code;fontSource=https%3A%2F%2Ffonts.googleapis.com%2Fcss%3Ffamily%3DFira%2BCode;fontSize=16;fontColor=default;endArrow=open;endFill=0;" edge="1" parent="1" source="YSa-JAcuy4eLsteA9DIx-6" target="YSa-JAcuy4eLsteA9DIx-7">
          <mxGeometry relative="1" as="geometry" />
        </mxCell>
        <mxCell id="YSa-JAcuy4eLsteA9DIx-6" value="Console Design" style="shape=parallelogram;perimeter=parallelogramPerimeter;whiteSpace=wrap;html=1;fixedSize=1;strokeWidth=2;fontStyle=1;fontSize=16;fontFamily=Fira Code;fontSource=https%3A%2F%2Ffonts.googleapis.com%2Fcss%3Ffamily%3DFira%2BCode;fillColor=#E6E6E6;" vertex="1" parent="1">
          <mxGeometry x="480" y="690" width="240" height="60" as="geometry" />
        </mxCell>
        <mxCell id="YSa-JAcuy4eLsteA9DIx-7" value="&lt;b&gt;Electric Housing&lt;/b&gt;" style="rounded=0;whiteSpace=wrap;html=1;strokeColor=default;strokeWidth=2;fontFamily=Fira Code;fontSource=https%3A%2F%2Ffonts.googleapis.com%2Fcss%3Ffamily%3DFira%2BCode;fontSize=16;fontColor=default;fillColor=#E6E6E6;" vertex="1" parent="1">
          <mxGeometry x="480" y="830" width="240" height="60" as="geometry" />
        </mxCell>
        <mxCell id="YSa-JAcuy4eLsteA9DIx-8" value="&lt;b&gt;Purchace of Materials&lt;/b&gt;" style="rounded=0;whiteSpace=wrap;html=1;strokeColor=default;strokeWidth=2;fontFamily=Fira Code;fontSource=https%3A%2F%2Ffonts.googleapis.com%2Fcss%3Ffamily%3DFira%2BCode;fontSize=16;fontColor=default;fillColor=#E6E6E6;" vertex="1" parent="1">
          <mxGeometry x="200" y="830" width="240" height="60" as="geometry" />
        </mxCell>
        <mxCell id="YSa-JAcuy4eLsteA9DIx-9" value="&lt;b&gt;Wiring Solution&lt;/b&gt;" style="rounded=0;whiteSpace=wrap;html=1;strokeColor=default;strokeWidth=2;fontFamily=Fira Code;fontSource=https%3A%2F%2Ffonts.googleapis.com%2Fcss%3Ffamily%3DFira%2BCode;fontSize=16;fontColor=default;fillColor=#E6E6E6;" vertex="1" parent="1">
          <mxGeometry x="760" y="830" width="240" height="60" as="geometry" />
        </mxCell>
        <mxCell id="YSa-JAcuy4eLsteA9DIx-26" style="edgeStyle=none;shape=connector;rounded=0;orthogonalLoop=1;jettySize=auto;html=1;entryX=0.5;entryY=0;entryDx=0;entryDy=0;labelBackgroundColor=default;strokeColor=default;strokeWidth=2;fontFamily=Fira Code;fontSource=https%3A%2F%2Ffonts.googleapis.com%2Fcss%3Ffamily%3DFira%2BCode;fontSize=16;fontColor=default;endArrow=open;endFill=0;" edge="1" parent="1" source="YSa-JAcuy4eLsteA9DIx-10" target="YSa-JAcuy4eLsteA9DIx-12">
          <mxGeometry relative="1" as="geometry">
            <Array as="points">
              <mxPoint x="340" y="1000" />
              <mxPoint x="320" y="1020" />
            </Array>
          </mxGeometry>
        </mxCell>
        <mxCell id="YSa-JAcuy4eLsteA9DIx-27" style="edgeStyle=none;shape=connector;rounded=0;orthogonalLoop=1;jettySize=auto;html=1;entryX=0.5;entryY=0;entryDx=0;entryDy=0;labelBackgroundColor=default;strokeColor=default;strokeWidth=2;fontFamily=Fira Code;fontSource=https%3A%2F%2Ffonts.googleapis.com%2Fcss%3Ffamily%3DFira%2BCode;fontSize=16;fontColor=default;endArrow=open;endFill=0;" edge="1" parent="1" source="YSa-JAcuy4eLsteA9DIx-10" target="YSa-JAcuy4eLsteA9DIx-13">
          <mxGeometry relative="1" as="geometry">
            <Array as="points">
              <mxPoint x="860" y="1000" />
              <mxPoint x="880" y="1020" />
            </Array>
          </mxGeometry>
        </mxCell>
        <mxCell id="YSa-JAcuy4eLsteA9DIx-28" style="edgeStyle=none;shape=connector;rounded=0;orthogonalLoop=1;jettySize=auto;html=1;entryX=0.5;entryY=0;entryDx=0;entryDy=0;labelBackgroundColor=default;strokeColor=default;strokeWidth=2;fontFamily=Fira Code;fontSource=https%3A%2F%2Ffonts.googleapis.com%2Fcss%3Ffamily%3DFira%2BCode;fontSize=16;fontColor=default;endArrow=open;endFill=0;" edge="1" parent="1" source="YSa-JAcuy4eLsteA9DIx-10" target="YSa-JAcuy4eLsteA9DIx-11">
          <mxGeometry relative="1" as="geometry" />
        </mxCell>
        <mxCell id="YSa-JAcuy4eLsteA9DIx-10" value="Console Development" style="shape=parallelogram;perimeter=parallelogramPerimeter;whiteSpace=wrap;html=1;fixedSize=1;strokeWidth=2;fontStyle=1;fontSize=16;fontFamily=Fira Code;fontSource=https%3A%2F%2Ffonts.googleapis.com%2Fcss%3Ffamily%3DFira%2BCode;fillColor=#E6E6E6;" vertex="1" parent="1">
          <mxGeometry x="480" y="970" width="240" height="60" as="geometry" />
        </mxCell>
        <mxCell id="YSa-JAcuy4eLsteA9DIx-11" value="&lt;b&gt;Electric Wiring&lt;/b&gt;" style="rounded=0;whiteSpace=wrap;html=1;strokeColor=default;strokeWidth=2;fontFamily=Fira Code;fontSource=https%3A%2F%2Ffonts.googleapis.com%2Fcss%3Ffamily%3DFira%2BCode;fontSize=16;fontColor=default;fillColor=#E6E6E6;" vertex="1" parent="1">
          <mxGeometry x="480" y="1110" width="240" height="60" as="geometry" />
        </mxCell>
        <mxCell id="YSa-JAcuy4eLsteA9DIx-12" value="&lt;b&gt;Component Assembly&lt;/b&gt;" style="rounded=0;whiteSpace=wrap;html=1;strokeColor=default;strokeWidth=2;fontFamily=Fira Code;fontSource=https%3A%2F%2Ffonts.googleapis.com%2Fcss%3Ffamily%3DFira%2BCode;fontSize=16;fontColor=default;fillColor=#E6E6E6;" vertex="1" parent="1">
          <mxGeometry x="200" y="1110" width="240" height="60" as="geometry" />
        </mxCell>
        <mxCell id="YSa-JAcuy4eLsteA9DIx-13" value="&lt;b&gt;Device Enclosure&lt;/b&gt;" style="rounded=0;whiteSpace=wrap;html=1;strokeColor=default;strokeWidth=2;fontFamily=Fira Code;fontSource=https%3A%2F%2Ffonts.googleapis.com%2Fcss%3Ffamily%3DFira%2BCode;fontSize=16;fontColor=default;fillColor=#E6E6E6;" vertex="1" parent="1">
          <mxGeometry x="760" y="1110" width="240" height="60" as="geometry" />
        </mxCell>
        <mxCell id="YSa-JAcuy4eLsteA9DIx-29" style="edgeStyle=none;shape=connector;rounded=0;orthogonalLoop=1;jettySize=auto;html=1;entryX=0.5;entryY=0;entryDx=0;entryDy=0;labelBackgroundColor=default;strokeColor=default;strokeWidth=2;fontFamily=Fira Code;fontSource=https%3A%2F%2Ffonts.googleapis.com%2Fcss%3Ffamily%3DFira%2BCode;fontSize=16;fontColor=default;endArrow=open;endFill=0;" edge="1" parent="1" source="YSa-JAcuy4eLsteA9DIx-14" target="YSa-JAcuy4eLsteA9DIx-16">
          <mxGeometry relative="1" as="geometry">
            <Array as="points">
              <mxPoint x="340" y="1280" />
              <mxPoint x="320" y="1300" />
            </Array>
          </mxGeometry>
        </mxCell>
        <mxCell id="YSa-JAcuy4eLsteA9DIx-30" style="edgeStyle=none;shape=connector;rounded=0;orthogonalLoop=1;jettySize=auto;html=1;entryX=0.5;entryY=0;entryDx=0;entryDy=0;labelBackgroundColor=default;strokeColor=default;strokeWidth=2;fontFamily=Fira Code;fontSource=https%3A%2F%2Ffonts.googleapis.com%2Fcss%3Ffamily%3DFira%2BCode;fontSize=16;fontColor=default;endArrow=open;endFill=0;" edge="1" parent="1" source="YSa-JAcuy4eLsteA9DIx-14" target="YSa-JAcuy4eLsteA9DIx-15">
          <mxGeometry relative="1" as="geometry" />
        </mxCell>
        <mxCell id="YSa-JAcuy4eLsteA9DIx-31" style="edgeStyle=none;shape=connector;rounded=0;orthogonalLoop=1;jettySize=auto;html=1;entryX=0.5;entryY=0;entryDx=0;entryDy=0;labelBackgroundColor=default;strokeColor=default;strokeWidth=2;fontFamily=Fira Code;fontSource=https%3A%2F%2Ffonts.googleapis.com%2Fcss%3Ffamily%3DFira%2BCode;fontSize=16;fontColor=default;endArrow=open;endFill=0;" edge="1" parent="1" source="YSa-JAcuy4eLsteA9DIx-14" target="YSa-JAcuy4eLsteA9DIx-17">
          <mxGeometry relative="1" as="geometry">
            <Array as="points">
              <mxPoint x="860" y="1280" />
              <mxPoint x="880" y="1300" />
            </Array>
          </mxGeometry>
        </mxCell>
        <mxCell id="YSa-JAcuy4eLsteA9DIx-14" value="Communication" style="shape=parallelogram;perimeter=parallelogramPerimeter;whiteSpace=wrap;html=1;fixedSize=1;strokeWidth=2;fontStyle=1;fontSize=16;fontFamily=Fira Code;fontSource=https%3A%2F%2Ffonts.googleapis.com%2Fcss%3Ffamily%3DFira%2BCode;fillColor=#E6E6E6;" vertex="1" parent="1">
          <mxGeometry x="480" y="1250" width="240" height="60" as="geometry" />
        </mxCell>
        <mxCell id="YSa-JAcuy4eLsteA9DIx-15" value="&lt;b&gt;Protocol Implementation&lt;/b&gt;" style="rounded=0;whiteSpace=wrap;html=1;strokeColor=default;strokeWidth=2;fontFamily=Fira Code;fontSource=https%3A%2F%2Ffonts.googleapis.com%2Fcss%3Ffamily%3DFira%2BCode;fontSize=16;fontColor=default;fillColor=#E6E6E6;" vertex="1" parent="1">
          <mxGeometry x="480" y="1390" width="240" height="60" as="geometry" />
        </mxCell>
        <mxCell id="YSa-JAcuy4eLsteA9DIx-16" value="&lt;b&gt;Protocol Design&lt;/b&gt;" style="rounded=0;whiteSpace=wrap;html=1;strokeColor=default;strokeWidth=2;fontFamily=Fira Code;fontSource=https%3A%2F%2Ffonts.googleapis.com%2Fcss%3Ffamily%3DFira%2BCode;fontSize=16;fontColor=default;fillColor=#E6E6E6;" vertex="1" parent="1">
          <mxGeometry x="200" y="1390" width="240" height="60" as="geometry" />
        </mxCell>
        <mxCell id="YSa-JAcuy4eLsteA9DIx-17" value="&lt;b&gt;Interaction Testing&lt;/b&gt;" style="rounded=0;whiteSpace=wrap;html=1;strokeColor=default;strokeWidth=2;fontFamily=Fira Code;fontSource=https%3A%2F%2Ffonts.googleapis.com%2Fcss%3Ffamily%3DFira%2BCode;fontSize=16;fontColor=default;fillColor=#E6E6E6;" vertex="1" parent="1">
          <mxGeometry x="760" y="1390" width="240" height="60" as="geometry" />
        </mxCell>
      </root>
    </mxGraphModel>
  </diagram>
</mxfile>
